<?xml version="1.0" standalone="no"?>
<!DOCTYPE svg PUBLIC "-//W3C//DTD SVG 20010904//EN"
 "http://www.w3.org/TR/2001/REC-SVG-20010904/DTD/svg10.dtd">
<svg version="1.0" xmlns="http://www.w3.org/2000/svg"
 width="152.000000pt" height="152.000000pt" viewBox="0 0 152.000000 152.000000"
 preserveAspectRatio="xMidYMid meet">
<metadata>
Created by potrace 1.16, written by Peter Selinger 2001-2019
</metadata>
<g transform="translate(0.000000,152.000000) scale(0.100000,-0.100000)"
fill="#000000" stroke="none">
<path d="M1455 961 c0 -27 -3 -47 -6 -45 -4 2 -9 -11 -13 -29 -8 -43 -37 -99
-58 -115 -10 -7 -18 -20 -18 -29 0 -9 -6 -13 -14 -10 -8 3 -16 -2 -19 -13 -3
-10 -18 -21 -38 -25 -19 -4 -43 -13 -54 -20 -11 -6 -31 -11 -45 -9 -14 1 -31
-3 -39 -10 -12 -9 -13 -8 -7 2 6 11 1 13 -20 11 -16 -2 -34 0 -41 4 -6 4 -18
4 -26 1 -8 -3 -18 0 -22 5 -3 6 -11 9 -16 6 -5 -4 -12 1 -15 9 -3 9 -14 16
-24 16 -10 0 -20 3 -22 8 -3 7 -89 50 -145 72 -26 10 -39 10 -62 0 -30 -12
-71 -53 -71 -70 0 -6 -5 -10 -12 -10 -6 0 -9 -3 -5 -6 3 -3 -5 -24 -19 -45
-13 -21 -24 -43 -24 -48 0 -6 -8 -15 -17 -20 -10 -6 -15 -11 -11 -11 8 0 -12
-27 -50 -66 -12 -13 -22 -28 -22 -34 0 -6 -4 -9 -8 -6 -5 3 -19 -4 -30 -15
-12 -11 -22 -16 -22 -12 0 4 -5 2 -12 -5 -7 -7 -24 -12 -39 -12 -15 0 -30 -4
-33 -8 -4 -6 -61 -8 -61 -2 0 1 -16 3 -35 4 -19 1 -48 10 -65 19 -16 9 -39 20
-50 25 -25 12 -95 79 -116 112 -25 38 -31 20 -13 -41 34 -114 92 -208 194
-310 81 -82 109 -102 190 -142 129 -64 188 -77 340 -77 146 0 209 13 325 69
181 86 331 260 400 466 20 58 34 345 18 345 -6 0 -9 10 -9 23 1 12 -3 28 -8
36 -6 8 -10 16 -8 18 8 11 0 43 -11 43 -9 0 -13 -16 -12 -49z"/>
</g>
</svg>
