<?xml version="1.0" standalone="no"?>
<!DOCTYPE svg PUBLIC "-//W3C//DTD SVG 20010904//EN"
 "http://www.w3.org/TR/2001/REC-SVG-20010904/DTD/svg10.dtd">
<svg version="1.0" xmlns="http://www.w3.org/2000/svg"
 width="512.000000pt" height="512.000000pt" viewBox="0 0 512.000000 512.000000"
 preserveAspectRatio="xMidYMid meet">
<metadata>
Created by potrace 1.16, written by Peter Selinger 2001-2019
</metadata>
<g transform="translate(0.000000,512.000000) scale(0.100000,-0.100000)"
fill="#000000" stroke="none">
<path d="M0 2560 l0 -2560 2560 0 2560 0 0 2560 0 2560 -2560 0 -2560 0 0
-2560z m2976 2491 c805 -139 1485 -637 1837 -1349 141 -285 223 -561 257 -867
13 -116 13 -434 0 -550 -62 -555 -302 -1074 -680 -1469 -384 -402 -879 -660
-1445 -753 -158 -26 -612 -26 -770 0 -824 136 -1511 634 -1868 1355 -141 285
-223 561 -257 867 -13 116 -13 434 0 550 94 848 602 1589 1349 1969 295 150
557 228 911 270 19 2 150 3 290 1 203 -2 279 -7 376 -24z"/>
<path d="M2375 4824 c-405 -42 -773 -170 -1100 -382 -264 -171 -529 -435 -720
-717 -37 -55 -78 -111 -90 -125 -13 -14 -26 -34 -29 -45 -9 -27 -74 -99 -93
-101 -31 -5 -44 -14 -37 -26 5 -8 0 -7 -11 2 -11 9 -16 10 -11 3 4 -8 2 -13
-4 -13 -6 0 -9 -4 -6 -9 3 -5 -4 -20 -15 -35 -11 -14 -17 -26 -14 -26 4 0 0
-11 -9 -25 -9 -13 -16 -30 -16 -38 0 -18 -23 -67 -32 -67 -4 0 -5 -7 -2 -15 4
-8 1 -15 -4 -15 -6 0 -11 -8 -10 -17 0 -10 -3 -29 -7 -43 -14 -51 -26 -108
-47 -215 -29 -150 -31 -522 -5 -695 10 -63 21 -122 24 -130 3 -8 5 -20 4 -26
-2 -19 80 -265 113 -336 17 -37 37 -68 44 -68 7 0 11 -4 8 -8 -2 -4 -1 -14 5
-22 7 -12 9 -9 10 10 0 14 3 19 6 13 2 -7 9 -13 14 -13 6 0 7 4 4 10 -4 6 1 7
11 3 13 -5 15 -3 10 8 -7 12 11 -7 57 -60 14 -17 27 -37 81 -117 333 -503 750
-844 1262 -1032 611 -225 1264 -181 1854 126 388 201 676 469 995 927 45 64
92 115 106 115 14 0 4 -90 -14 -125 -8 -16 -18 -51 -21 -78 -3 -26 -8 -51 -11
-56 -3 -5 0 -13 6 -17 7 -4 9 -3 6 3 -4 6 0 14 9 17 8 3 13 10 10 14 -3 5 3
18 14 29 10 12 16 24 13 27 -4 3 -1 6 5 6 6 0 16 16 23 35 7 19 16 35 19 35 4
0 15 19 25 43 10 23 23 56 31 72 77 180 127 334 152 470 39 207 45 280 39 530
-4 220 -8 253 -37 390 -17 83 -49 202 -71 265 -46 132 -135 319 -155 327 -8 3
-11 9 -8 14 3 5 -2 9 -10 9 -17 0 -22 -35 -7 -44 8 -5 8 -34 1 -43 -2 -2 -3
-9 -4 -15 -2 -27 -32 -10 -73 42 -56 70 -51 64 -103 140 -477 696 -1184 1098
-1960 1114 -102 2 -203 2 -225 0z m378 -254 c572 -48 1095 -355 1404 -825 79
-120 153 -281 153 -332 0 -33 -24 -10 -105 103 -236 329 -500 559 -820 714
-345 168 -701 230 -1052 185 -431 -56 -824 -247 -1137 -552 -81 -80 -247 -270
-271 -312 -22 -38 -96 -131 -104 -131 -44 0 30 183 141 348 164 244 388 443
660 586 344 182 705 251 1131 216z m-32 -400 c530 -54 995 -373 1206 -825 48
-104 90 -249 92 -315 0 -8 3 -70 6 -137 3 -68 2 -123 -2 -123 -16 0 -29 16
-30 35 0 11 -4 36 -7 55 -4 19 -7 43 -7 53 0 9 -4 15 -8 12 -5 -2 -21 35 -36
82 -34 108 -84 215 -147 313 -74 115 -83 127 -207 251 -227 227 -483 359 -776
399 -113 16 -335 20 -435 9 -297 -33 -572 -161 -792 -368 -214 -201 -342 -415
-419 -701 -33 -124 -34 -127 -34 -345 0 -156 4 -236 14 -274 8 -30 15 -62 16
-70 1 -9 4 -23 7 -31 3 -8 15 -45 26 -81 12 -36 32 -91 46 -122 15 -31 31 -66
36 -79 5 -13 30 -54 55 -93 25 -38 48 -77 52 -85 26 -56 273 -295 373 -361
267 -176 462 -232 805 -233 204 0 317 14 464 59 395 120 745 458 903 871 12
32 21 65 19 73 -1 8 2 10 10 5 8 -5 11 -2 6 8 -3 9 -1 20 4 25 5 5 11 18 13
29 3 10 9 39 15 63 5 25 8 49 5 53 -3 4 4 22 16 38 20 28 20 57 -1 45 -5 -4
-9 1 -9 10 0 9 5 13 10 10 10 -6 14 7 11 33 -3 20 16 14 22 -8 3 -11 2 -20 -2
-20 -4 0 -8 -48 -9 -107 -8 -287 -33 -403 -130 -588 -183 -346 -525 -614 -928
-725 -184 -50 -471 -65 -672 -35 -374 56 -714 249 -952 540 -145 178 -244 402
-252 571 -2 30 -5 54 -8 54 -3 0 -6 42 -8 93 -2 50 -7 128 -11 172 -12 107 -5
339 15 515 3 30 7 71 8 90 25 343 252 692 601 920 296 193 656 277 1026 240z
m-131 -242 c0 -9 3 -9 9 1 8 12 12 12 26 -2 16 -17 28 -21 53 -18 6 1 12 -3
12 -9 0 -5 7 -10 15 -10 8 0 15 -4 15 -9 0 -13 47 -60 54 -54 12 13 6 -34 -7
-52 -12 -15 -27 -18 -98 -16 -174 3 -274 13 -289 27 -10 10 -12 17 -4 22 6 4
17 18 23 30 7 13 15 21 18 18 5 -5 12 0 52 34 50 42 121 64 121 38z m-1726
-2257 c36 -64 204 -269 300 -365 279 -282 581 -454 958 -546 172 -42 295 -54
498 -47 282 9 507 66 767 192 303 148 552 362 791 679 53 71 103 131 111 134
25 8 3 -76 -45 -175 -191 -392 -588 -731 -1029 -879 -115 -39 -138 -45 -248
-69 -176 -39 -514 -48 -712 -20 -534 75 -1011 371 -1305 809 -80 119 -156 289
-143 321 4 13 8 13 25 1 11 -8 26 -24 32 -35z m1849 -298 c33 -4 45 -9 38 -16
-7 -7 -7 -16 0 -29 7 -14 6 -18 -6 -18 -9 0 -18 -6 -21 -14 -3 -8 -12 -12 -20
-9 -8 3 -14 1 -14 -5 0 -6 -23 -25 -52 -42 -45 -28 -58 -31 -97 -26 -25 3 -47
10 -50 15 -4 4 -16 11 -28 15 -26 8 -83 65 -83 83 0 7 -4 13 -10 13 -20 0 -9
19 17 27 30 10 254 14 326 6z"/>
</g>
</svg>
